<svg xmlns="http://www.w3.org/2000/svg" width="512" height="512" viewBox="0 0 512 512" version="1.1">
	<path d="M 258.849 197.221 C 248.520 200.526, 245.997 201.712, 245.099 203.682 C 244.495 205.008, 244 206.316, 244 206.587 C 244 206.858, 249.625 206.801, 256.501 206.461 C 267.868 205.897, 269.063 206.001, 269.680 207.609 C 270.240 209.067, 267.500 236.930, 266.736 237.554 C 266.606 237.660, 256.375 241.010, 244 244.999 C 212.222 255.242, 207.795 257.396, 203.255 264.826 C 200.234 269.770, 200.271 276.893, 203.352 283.508 C 209.967 297.715, 233.024 317.174, 250.290 323.124 C 255.783 325.017, 257.017 325.122, 260.976 324.033 C 266.590 322.488, 271.323 317.610, 272.801 311.845 C 273.414 309.455, 274.614 298.725, 275.469 288 C 277.319 264.777, 277.828 259.047, 278.603 252.750 C 278.925 250.137, 278.925 248, 278.604 248 C 278.284 248, 275.104 249.168, 271.538 250.595 C 263.988 253.618, 264.975 250.753, 261.934 278.457 C 258.624 308.617, 257.624 309.532, 240.380 298.183 C 223.692 287.199, 218.497 278.316, 224.554 271.118 C 227.520 267.593, 241.738 260.526, 269.500 248.776 C 279.950 244.354, 290.750 239.733, 293.500 238.509 C 296.250 237.285, 306.028 233.236, 315.228 229.511 C 330.032 223.519, 332.185 222.352, 333.944 219.370 C 335.038 217.516, 335.637 216, 335.277 216 C 334.576 216, 300.309 226.564, 288.250 230.498 C 284.262 231.798, 281 232.425, 281 231.890 C 281 231.355, 281.723 224.989, 282.606 217.745 C 284.283 203.985, 284.102 197.033, 282 194.501 C 279.927 192.002, 272.391 192.888, 258.849 197.221" stroke="none" fill="black" fill-rule="evenodd"/>
</svg>